<?xml version="1.0" encoding="UTF-8" standalone="no"?>
<svg
   role="img"
   aria-label="Cuerpo Académico UDG-CA-1236 · Derecho y Tecnología"
   width="822"
   height="628"
   viewBox="76 227 822 628"
   version="1.1"
   id="svg8"
   xmlns="http://www.w3.org/2000/svg"
   xmlns:svg="http://www.w3.org/2000/svg">
  <defs
     id="defs8" />
  <!-- CA UDG-CA-1236 | Símbolo maestro v3.0 FROZEN (LOGO-PACK/SVG/CA1236_symbol_fullcolor.svg), recortado al área visible -->
  <path
     d="m 645.16,524.64 c 0,-81.32 -20.52,-145.16 -62.32,-193.04 -41.04,-47.88 -97.28,-71.44 -167.96,-72.2 -59.28,-0.76 -107.16,-0.76 -143.64,0 -39.52,0.76 -79.04,-0.76 -117.8,-3.04 v 23.56 h 71.44 V 756.44 H 153.44 V 780 c 32.68,-0.76 68.4,-1.52 106.4,-1.52 46.36,0.76 97.28,1.52 152.76,3.04 61.56,2.28 115.52,-22.8 161.88,-73.72 47.12,-50.92 70.68,-112.48 70.68,-183.16 z m -80.56,-2.28 c 0.76,67.64 -10.64,120.84 -35.72,161.12 -25.08,43.32 -63.84,68.4 -115.52,76 -8.36,0.76 -19,1.52 -32.68,1.52 -24.32,0 -53.96,-1.52 -88.16,-4.56 V 282.96 c 37.24,-4.56 78.28,-5.32 122.36,-3.04 56.24,4.56 96.52,31.16 120.08,79.04 19,37.24 28.88,91.2 29.64,163.4 z"
     fill="#0B2545"
     id="path1" />
  <!-- Smaller globe: internationalization is embedded, not dominant -->
  <g
     fill="none"
     stroke="#C9A968"
     stroke-width="9.5"
     stroke-linecap="round"
     opacity="0.97"
     id="g6">
    <ellipse
       cx="424"
       cy="478"
       rx="112"
       ry="226"
       id="ellipse1" />
    <path
       d="M424 252 C374 350 374 606 424 704"
       id="path2" />
    <path
       d="M424 252 C474 350 474 606 424 704"
       id="path3" />
    <path
       d="M321 382 C389 407 457 407 525 382"
       id="path4" />
    <path
       d="M316 478 C389 499 459 499 532 478"
       id="path5" />
    <path
       d="M321 574 C389 549 457 549 525 574"
       id="path6" />
  </g>
  <path
     d="M 847.3,387.15 H 456 l -1.3,131.95 h 18.85 c 3.9,-38.35 14.3,-66.3 30.55,-82.55 16.25,-16.25 46.15,-26 88.4,-27.95 l 29.25,-1.3 V 814.85 H 561.3 V 835 H 742 V 814.85 H 680.9 V 407.3 l 29.9,1.3 c 42.25,1.95 72.15,11.7 89.05,29.25 16.9,17.55 26.65,44.2 29.25,81.25 h 19.5 z"
     fill="#7A1E2D"
     id="path7" />
  <!-- Refined orbit: lighter visual weight -->
  <ellipse
     cx="487"
     cy="502"
     rx="394"
     ry="166"
     transform="rotate(-14 487 502)"
     fill="none"
     stroke="#C9A968"
     stroke-width="12.5"
     stroke-linecap="round"
     id="ellipse7" />
  <circle
     cx="842"
     cy="414"
     r="25"
     fill="#C9A968"
     id="circle7" />
  <circle
     cx="835"
     cy="406"
     r="7"
     fill="#F8F6EF"
     opacity="0.38"
     id="circle8" />
</svg>
